<?xml version="1.0" encoding="UTF-8"?>
<svg width="124px" height="124px" viewBox="0 0 124 124" version="1.1" xmlns="http://www.w3.org/2000/svg" xmlns:xlink="http://www.w3.org/1999/xlink">
    <!-- Generator: Sketch 43.2 (39069) - http://www.bohemiancoding.com/sketch -->
    <title>s-and-k-bw</title>
    <desc>Created with Sketch.</desc>
    <defs></defs>
    <g id="Page-1" stroke="none" stroke-width="1" fill="none" fill-rule="evenodd">
        <g id="s-and-k-bw" transform="translate(2.000000, 2.000000)">
            <circle id="Oval-Copy-2" stroke="#FFFFFF" stroke-width="4" cx="60" cy="60" r="60"></circle>
            <path d="M45.6875,31.125 L44.7265625,31.125 C44.9140634,30.2343705 45.0078125,29.3281296 45.0078125,28.40625 C45.0078125,27.1874939 44.7695336,26.0898486 44.2929688,25.1132812 C43.8164039,24.1367139 43.0664114,23.3593779 42.0429688,22.78125 C41.0195261,22.2031221 39.7343827,21.9140625 38.1875,21.9140625 C36.1718649,21.9140625 34.5507874,22.4296823 33.3242188,23.4609375 C32.0976501,24.4921927 31.484375,26.0078025 31.484375,28.0078125 C31.484375,30.3671993 32.8242054,32.7929563 35.5039062,35.2851562 C38.1836071,37.7773562 40.2070244,39.7851486 41.5742188,41.3085938 C42.9414131,42.8320389 43.625,44.7031139 43.625,46.921875 C43.625,49.0156355 43.0234435,50.7695242 41.8203125,52.1835938 C40.6171815,53.5976633 39.089853,54.6445279 37.2382812,55.3242188 C35.3867095,56.0039096 33.4687599,56.34375 31.484375,56.34375 C29.7968666,56.34375 28.4414114,56.1367208 27.4179688,55.7226562 C26.3945261,55.3085917 25.4765666,54.7734408 24.6640625,54.1171875 C24.0546845,53.6484352 23.4765652,53.4140625 22.9296875,53.4140625 C22.5546856,53.4140625 22.2343763,53.6015606 21.96875,53.9765625 C21.7031237,54.3515644 21.3671895,55.0234327 20.9609375,55.9921875 L20,55.9921875 C21.0781304,53.4452998 22.164057,49.6094006 23.2578125,44.484375 L24.21875,44.484375 C24.0468741,45.4375048 23.9296878,46.1757786 23.8671875,46.6992188 C23.8046872,47.2226589 23.7812499,47.781247 23.796875,48.375 C24.000001,53.0468984 26.6093499,55.3828125 31.625,55.3828125 C33.7968859,55.3828125 35.5156187,54.8867237 36.78125,53.8945312 C38.0468813,52.9023388 38.6796875,51.3984476 38.6796875,49.3828125 C38.6796875,46.7577994 37.4570435,44.2851679 35.0117188,41.9648438 C32.566394,39.6445196 30.7187563,37.7539136 29.46875,36.2929688 C28.2187437,34.8320239 27.59375,32.8593874 27.59375,30.375 C27.59375,28.4062402 28.093745,26.7148508 29.09375,25.3007812 C30.093755,23.8867117 31.4023357,22.8164099 33.0195312,22.0898438 C34.6367268,21.3632776 36.343741,21 38.140625,21 C39.4531316,21 40.5898389,21.1601546 41.5507812,21.4804688 C42.5117236,21.8007829 43.4609328,22.3124965 44.3984375,23.015625 C45.1328162,23.5937529 45.6562484,23.8828125 45.96875,23.8828125 C46.2343763,23.8828125 46.4843738,23.687502 46.71875,23.296875 C46.9531262,22.906248 47.2343734,22.257817 47.5625,21.3515625 L48.5234375,21.3515625 C47.3671817,24.1640766 46.4218787,27.4218565 45.6875,31.125 Z" id="S-Copy-2" fill="#FFFFFF" fill-rule="nonzero"></path>
            <path d="M89.1328125,86.5 C89.1328125,85.0781179 88.9921889,84.0117223 88.7109375,83.3007812 C88.4296861,82.5898402 87.984378,81.9765651 87.375,81.4609375 C86.2499944,81.757814 85.3281286,81.90625 84.609375,81.90625 C83.6249951,81.90625 83.1328125,81.5859407 83.1328125,80.9453125 C83.1328125,80.3046843 83.6093702,79.984375 84.5625,79.984375 C85.2187533,79.984375 86.195306,80.1484359 87.4921875,80.4765625 C89.8046991,80.1953111 91.5156195,79.2656329 92.625,77.6875 C93.7343805,76.1093671 94.8046823,73.8203275 95.8359375,70.8203125 C96.8671927,67.8202975 97.8593702,65.9140666 98.8125,65.1015625 C99.7656298,64.3671838 100.726558,64 101.695312,64 C102.679692,64 103.398435,64.2382789 103.851562,64.7148438 C104.30469,65.1914086 104.53125,65.8124962 104.53125,66.578125 C104.53125,67.0000021 104.433595,67.4726536 104.238281,67.9960938 C104.042968,68.5195339 103.738283,68.9687481 103.324219,69.34375 C102.910154,69.7187519 102.382816,69.90625 101.742188,69.90625 C101.117184,69.90625 100.648439,69.7187519 100.335938,69.34375 C100.023436,68.9687481 99.8671875,68.5156277 99.8671875,67.984375 C99.8671875,67.5312477 100.015624,67.0273465 100.3125,66.4726562 C100.609376,65.917966 100.97656,65.4296896 101.414062,65.0078125 L101.273438,65.0078125 C100.632809,65.0390627 100.05469,65.2656229 99.5390625,65.6875 C98.7109334,66.4375038 97.7890676,68.2538918 96.7734375,71.1367188 C95.7578074,74.0195457 94.6875056,76.3007729 93.5625,77.9804688 C92.4374944,79.6601646 90.6875119,80.6406236 88.3125,80.921875 C89.4687558,81.1875013 90.3906216,81.5195293 91.078125,81.9179688 C91.7656284,82.3164082 92.312498,82.9921827 92.71875,83.9453125 C93.125002,84.8984423 93.328125,86.2499912 93.328125,88 L93.3046875,88.8203125 L93.1171875,94.2578125 L93.09375,94.8203125 C93.09375,95.4453156 93.1953115,95.9140609 93.3984375,96.2265625 C93.6015635,96.5390641 93.9843722,96.6953125 94.546875,96.6953125 C95.3593791,96.6953125 96.0390598,96.3984405 96.5859375,95.8046875 C97.1328152,95.2109345 97.6406227,94.2578191 98.109375,92.9453125 L98.90625,90.5078125 L99.8671875,90.5078125 L98.625,94.2109375 C98.031247,95.9609463 97.2539111,97.2539021 96.2929688,98.0898438 C95.3320264,98.9257854 94.156257,99.34375 92.765625,99.34375 C90.0624865,99.34375 88.7109375,97.7578284 88.7109375,94.5859375 C88.7109375,94.2265607 88.7187499,93.9531259 88.734375,93.765625 L89.0625,88.3515625 C89.1093752,87.6796841 89.1328125,87.0625028 89.1328125,86.5 Z M78.1640625,95.8984375 C78.1640625,96.3671898 78.2695302,96.7265613 78.4804688,96.9765625 C78.6914073,97.2265637 79.0234352,97.4023432 79.4765625,97.5039062 C79.9296898,97.6054693 80.5703084,97.6718748 81.3984375,97.703125 L81.2109375,98.6640625 C79.71093,98.570312 77.6797003,98.5234375 75.1171875,98.5234375 C72.4452991,98.5234375 70.406257,98.570312 69,98.6640625 L69.2578125,97.703125 C70.3828181,97.6562498 71.2265597,97.531251 71.7890625,97.328125 C72.3515653,97.124999 72.8007796,96.7460965 73.1367188,96.1914062 C73.4726579,95.636716 73.7968734,94.7656309 74.109375,93.578125 L80.4375,69.765625 C80.7031263,68.7499949 80.8359375,67.9843776 80.8359375,67.46875 C80.8359375,66.9843726 80.7265636,66.6171887 80.5078125,66.3671875 C80.2890614,66.1171862 79.9570335,65.9414068 79.5117188,65.8398438 C79.066404,65.7382807 78.4296916,65.6718752 77.6015625,65.640625 L77.8359375,64.6796875 C79.1484441,64.773438 81.1796738,64.8203125 83.9296875,64.8203125 C86.4922003,64.8203125 88.5390548,64.773438 90.0703125,64.6796875 L89.8359375,65.640625 C88.6640566,65.6875002 87.7929716,65.812499 87.2226562,66.015625 C86.6523409,66.218751 86.1992204,66.5937473 85.8632812,67.140625 C85.5273421,67.6875027 85.2031266,68.562494 84.890625,69.765625 L78.5625,93.578125 C78.2968737,94.6093802 78.1640625,95.3828099 78.1640625,95.8984375 Z" id="K-Copy-2" fill="#FFFFFF" fill-rule="nonzero"></path>
            <path d="M61.078125,69.1171875 C59.7792904,69.1171875 58.6992231,68.7959017 57.8378906,68.1533203 C56.9765582,67.510739 56.5458984,66.4580151 56.5458984,64.9951172 C56.5458984,63.3681559 57.1269473,62.0214897 58.2890625,60.9550781 C59.4511777,59.8886665 61.1943243,58.924809 63.5185547,58.0634766 C64.161136,57.8310535 65.2241137,57.4516628 66.7075195,56.925293 C68.1909254,56.3989231 69.6093682,55.8793971 70.9628906,55.3666992 C72.316413,54.8540013 73.4580032,54.3720726 74.3876953,53.9208984 C75.7685616,53.2509732 76.8349572,52.5502966 77.5869141,51.8188477 C78.3388709,51.0873987 78.7148438,50.2294971 78.7148438,49.2451172 C78.7148438,48.575192 78.5336932,47.9633817 78.1713867,47.409668 C77.8090802,46.8559543 77.3100618,46.4218766 76.6743164,46.1074219 C76.038571,45.7929672 75.3378945,45.6357422 74.5722656,45.6357422 C73.8339807,45.6357422 73.3828133,45.7587878 73.21875,46.0048828 C73.5058608,46.1689461 73.7246086,46.3945298 73.875,46.6816406 C74.0253914,46.9687514 74.1005859,47.2763655 74.1005859,47.6044922 C74.1005859,48.0283224 73.9707044,48.4248028 73.7109375,48.7939453 C73.4511706,49.1630878 73.1093771,49.4570302 72.6855469,49.6757812 C72.2617166,49.8945323 71.8105493,50.0039062 71.3320312,50.0039062 C70.7714816,50.0039062 70.3168963,49.8466813 69.9682617,49.5322266 C69.6196272,49.2177719 69.4453125,48.7871121 69.4453125,48.2402344 C69.4453125,47.6660128 69.6401348,47.1499046 70.0297852,46.6918945 C70.4194355,46.2338844 70.9218719,45.8681654 71.5371094,45.5947266 C72.4668015,45.1982402 73.4921819,45 74.6132812,45 C76.2265706,45 77.5048781,45.3964804 78.4482422,46.1894531 C79.3916063,46.9824258 79.8632812,48.1855388 79.8632812,49.7988281 C79.8632812,51.2207102 79.456547,52.4785102 78.6430664,53.5722656 C77.8295858,54.6660211 76.5273527,55.664058 74.7363281,56.5664062 C73.4785093,57.1816437 71.2431801,58.0771426 68.0302734,59.2529297 C70.067393,60.9619226 71.0859375,63.0605344 71.0859375,65.5488281 C71.0859375,67.4082124 70.5288142,69.1308514 69.4145508,70.7167969 C68.3002874,72.3027423 66.6870223,73.5673781 64.574707,74.5107422 C62.4623918,75.4541063 59.9707175,75.9257812 57.0996094,75.9257812 C54.6386596,75.9257812 52.4990325,75.5703161 50.6806641,74.859375 C48.8622956,74.1484339 47.4609424,73.1298894 46.4765625,71.8037109 C45.4921826,70.4775324 45,68.8984467 45,67.0664062 C45,65.425773 45.3896445,63.8877025 46.1689453,62.4521484 C46.9482461,61.0165944 48.0214775,59.7861379 49.3886719,58.7607422 C50.7558662,57.7353464 52.3007726,56.9834008 54.0234375,56.5048828 C53.0800734,55.9990209 52.3554713,55.3256878 51.8496094,54.4848633 C51.3437475,53.6440388 51.0908203,52.7519578 51.0908203,51.8085938 C51.0908203,50.5917908 51.5043904,49.5322311 52.331543,48.6298828 C53.1586955,47.7275346 54.2148373,47.0371118 55.5,46.5585938 C56.7851627,46.0800757 58.0839778,45.8408203 59.3964844,45.8408203 C60.4355521,45.8408203 61.3447227,45.9946274 62.1240234,46.3022461 C62.9033242,46.6098648 63.5048807,47.0371066 63.9287109,47.5839844 C64.3525412,48.1308621 64.5644531,48.7665979 64.5644531,49.4912109 C64.5644531,50.1748081 64.3901385,50.752439 64.0415039,51.2241211 C63.6928694,51.6958031 63.2451199,52.0512683 62.6982422,52.2905273 C62.1513645,52.5297864 61.5839873,52.6494141 60.9960938,52.6494141 L61.078125,51.890625 C61.8574258,51.890625 62.4863257,51.6855489 62.9648438,51.2753906 C63.4433618,50.8652323 63.6826172,50.3046911 63.6826172,49.59375 C63.6826172,48.6640579 63.2998085,47.9189481 62.5341797,47.3583984 C61.7685509,46.7978488 60.7978574,46.5175781 59.6220703,46.5175781 C58.487299,46.5175781 57.4687545,46.787595 56.5664062,47.3276367 C55.664058,47.8676785 54.9599635,48.6127882 54.4541016,49.5629883 C53.9482397,50.5131883 53.6953125,51.5830019 53.6953125,52.7724609 C53.6953125,54.0712956 54.0029266,55.2333933 54.6181641,56.2587891 C55.6162159,56.0947257 56.498043,56.0126953 57.2636719,56.0126953 C58.2753957,56.0126953 58.78125,56.3066377 58.78125,56.8945312 C58.78125,57.195314 58.6513685,57.4174798 58.3916016,57.5610352 C58.1318346,57.7045906 57.8242205,57.7763672 57.46875,57.7763672 C56.7714809,57.7763672 55.8076233,57.4687531 54.5771484,56.8535156 C53.3056577,57.2226581 52.1845752,57.8173787 51.2138672,58.6376953 C50.2431592,59.4580119 49.4877957,60.4287053 48.9477539,61.5498047 C48.4077121,62.670904 48.1376953,63.8603453 48.1376953,65.1181641 C48.1376953,66.7587973 48.5888627,68.1567325 49.4912109,69.3120117 C50.3935592,70.4672909 51.6376874,71.3388642 53.2236328,71.9267578 C54.8095782,72.5146514 56.6279194,72.8085938 58.6787109,72.8085938 C60.8525499,72.8085938 62.8178623,72.4873079 64.574707,71.8447266 C66.3315518,71.2021452 67.7158153,70.2861388 68.7275391,69.0966797 C69.7392629,67.9072206 70.2451172,66.5400468 70.2451172,64.9951172 C70.2451172,63.9697214 70.0092797,62.9648487 69.5375977,61.9804688 C69.0659156,60.9960888 68.3584032,60.1621128 67.4150391,59.4785156 C64.543931,60.5312553 62.766605,61.1943346 62.0830078,61.4677734 C60.825189,61.9599634 59.7758831,62.5239226 58.9350586,63.159668 C58.0942341,63.7954133 57.6738281,64.6191356 57.6738281,65.6308594 C57.6738281,66.4921918 58.0190395,67.1757787 58.7094727,67.6816406 C59.3999058,68.1875025 60.2441356,68.4404297 61.2421875,68.4404297 C62.3496149,68.4404297 63.2519496,68.1669949 63.9492188,67.6201172 C64.6464879,67.0732395 65.1728498,66.5195341 65.5283203,65.9589844 L66.0820312,66.3486328 C64.9609319,68.1943452 63.2929798,69.1171875 61.078125,69.1171875 Z" id="&amp;-copy-2" fill="#FFFFFF" fill-rule="nonzero"></path>
        </g>
    </g>
</svg>