<?xml version="1.0" encoding="UTF-8"?>
<svg width="124px" height="124px" viewBox="0 0 124 124" version="1.1" xmlns="http://www.w3.org/2000/svg" xmlns:xlink="http://www.w3.org/1999/xlink">
    <!-- Generator: Sketch 43.2 (39069) - http://www.bohemiancoding.com/sketch -->
    <title>Group</title>
    <desc>Created with Sketch.</desc>
    <defs></defs>
    <g id="Page-1" stroke="none" stroke-width="1" fill="none" fill-rule="evenodd">
        <g id="Artboard-4" transform="translate(-226.000000, -203.000000)">
            <g id="Group" transform="translate(228.000000, 205.000000)">
                <circle id="Oval-Copy" stroke="#FFFFFF" stroke-width="4" fill="#4786A9" cx="60" cy="60" r="60"></circle>
                <path d="M44.8203125,31.4609375 L43.859375,31.4609375 C44.0468759,30.570308 44.140625,29.6640671 44.140625,28.7421875 C44.140625,27.5234314 43.9023461,26.4257861 43.4257812,25.4492188 C42.9492164,24.4726514 42.1992239,23.6953154 41.1757812,23.1171875 C40.1523386,22.5390596 38.8671952,22.25 37.3203125,22.25 C35.3046774,22.25 33.6835999,22.7656198 32.4570312,23.796875 C31.2304626,24.8281302 30.6171875,26.34374 30.6171875,28.34375 C30.6171875,30.7031368 31.9570179,33.1288938 34.6367188,35.6210938 C37.3164196,38.1132937 39.3398369,40.1210861 40.7070312,41.6445312 C42.0742256,43.1679764 42.7578125,45.0390514 42.7578125,47.2578125 C42.7578125,49.351573 42.156256,51.1054617 40.953125,52.5195312 C39.749994,53.9336008 38.2226655,54.9804654 36.3710938,55.6601562 C34.519522,56.3398471 32.6015724,56.6796875 30.6171875,56.6796875 C28.9296791,56.6796875 27.5742239,56.4726583 26.5507812,56.0585938 C25.5273386,55.6445292 24.6093791,55.1093783 23.796875,54.453125 C23.187497,53.9843727 22.6093777,53.75 22.0625,53.75 C21.6874981,53.75 21.3671888,53.9374981 21.1015625,54.3125 C20.8359362,54.6875019 20.500002,55.3593702 20.09375,56.328125 L19.1328125,56.328125 C20.2109429,53.7812373 21.2968695,49.9453381 22.390625,44.8203125 L23.3515625,44.8203125 C23.1796866,45.7734423 23.0625003,46.5117161 23,47.0351562 C22.9374997,47.5585964 22.9140624,48.1171845 22.9296875,48.7109375 C23.1328135,53.3828359 25.7421624,55.71875 30.7578125,55.71875 C32.9296984,55.71875 34.6484312,55.2226612 35.9140625,54.2304688 C37.1796938,53.2382763 37.8125,51.7343851 37.8125,49.71875 C37.8125,47.0937369 36.589856,44.6211054 34.1445312,42.3007812 C31.6992065,39.9804571 29.8515688,38.0898511 28.6015625,36.6289062 C27.3515562,35.1679614 26.7265625,33.1953249 26.7265625,30.7109375 C26.7265625,28.7421777 27.2265575,27.0507883 28.2265625,25.6367188 C29.2265675,24.2226492 30.5351482,23.1523474 32.1523438,22.4257812 C33.7695393,21.6992151 35.4765535,21.3359375 37.2734375,21.3359375 C38.5859441,21.3359375 39.7226514,21.4960921 40.6835938,21.8164062 C41.6445361,22.1367204 42.5937453,22.648434 43.53125,23.3515625 C44.2656287,23.9296904 44.7890609,24.21875 45.1015625,24.21875 C45.3671888,24.21875 45.6171863,24.0234395 45.8515625,23.6328125 C46.0859387,23.2421855 46.3671859,22.5937545 46.6953125,21.6875 L47.65625,21.6875 C46.4999942,24.5000141 45.5546912,27.757794 44.8203125,31.4609375 Z" id="S-Copy" fill="#FFFFFF"></path>
                <path d="M88.5390625,86.8359375 C88.5390625,85.4140554 88.3984389,84.3476598 88.1171875,83.6367188 C87.8359361,82.9257777 87.390628,82.3125026 86.78125,81.796875 C85.6562444,82.0937515 84.7343786,82.2421875 84.015625,82.2421875 C83.0312451,82.2421875 82.5390625,81.9218782 82.5390625,81.28125 C82.5390625,80.6406218 83.0156202,80.3203125 83.96875,80.3203125 C84.6250033,80.3203125 85.601556,80.4843734 86.8984375,80.8125 C89.2109491,80.5312486 90.9218695,79.6015704 92.03125,78.0234375 C93.1406305,76.4453046 94.2109323,74.156265 95.2421875,71.15625 C96.2734427,68.156235 97.2656202,66.2500041 98.21875,65.4375 C99.1718798,64.7031213 100.132808,64.3359375 101.101562,64.3359375 C102.085942,64.3359375 102.804685,64.5742164 103.257812,65.0507812 C103.71094,65.5273461 103.9375,66.1484337 103.9375,66.9140625 C103.9375,67.3359396 103.839845,67.8085911 103.644531,68.3320312 C103.449218,68.8554714 103.144533,69.3046856 102.730469,69.6796875 C102.316404,70.0546894 101.789066,70.2421875 101.148438,70.2421875 C100.523434,70.2421875 100.054689,70.0546894 99.7421875,69.6796875 C99.4296859,69.3046856 99.2734375,68.8515652 99.2734375,68.3203125 C99.2734375,67.8671852 99.4218735,67.363284 99.71875,66.8085938 C100.015626,66.2539035 100.38281,65.7656271 100.820312,65.34375 L100.679688,65.34375 C100.039059,65.3750002 99.4609401,65.6015604 98.9453125,66.0234375 C98.1171834,66.7734413 97.1953176,68.5898293 96.1796875,71.4726562 C95.1640574,74.3554832 94.0937556,76.6367104 92.96875,78.3164062 C91.8437444,79.9961021 90.0937619,80.9765611 87.71875,81.2578125 C88.8750058,81.5234388 89.7968716,81.8554668 90.484375,82.2539062 C91.1718784,82.6523457 91.718748,83.3281202 92.125,84.28125 C92.531252,85.2343798 92.734375,86.5859287 92.734375,88.3359375 L92.7109375,89.15625 L92.5234375,94.59375 L92.5,95.15625 C92.5,95.7812531 92.6015615,96.2499984 92.8046875,96.5625 C93.0078135,96.8750016 93.3906222,97.03125 93.953125,97.03125 C94.7656291,97.03125 95.4453098,96.734378 95.9921875,96.140625 C96.5390652,95.546872 97.0468727,94.5937566 97.515625,93.28125 L98.3125,90.84375 L99.2734375,90.84375 L98.03125,94.546875 C97.437497,96.2968838 96.6601611,97.5898396 95.6992188,98.4257812 C94.7382764,99.2617229 93.562507,99.6796875 92.171875,99.6796875 C89.4687365,99.6796875 88.1171875,98.0937659 88.1171875,94.921875 C88.1171875,94.5624982 88.1249999,94.2890634 88.140625,94.1015625 L88.46875,88.6875 C88.5156252,88.0156216 88.5390625,87.3984403 88.5390625,86.8359375 Z M77.5703125,96.234375 C77.5703125,96.7031273 77.6757802,97.0624988 77.8867188,97.3125 C78.0976573,97.5625012 78.4296852,97.7382807 78.8828125,97.8398438 C79.3359398,97.9414068 79.9765584,98.0078123 80.8046875,98.0390625 L80.6171875,99 C79.11718,98.9062495 77.0859503,98.859375 74.5234375,98.859375 C71.8515491,98.859375 69.812507,98.9062495 68.40625,99 L68.6640625,98.0390625 C69.7890681,97.9921873 70.6328097,97.8671885 71.1953125,97.6640625 C71.7578153,97.4609365 72.2070296,97.082034 72.5429688,96.5273438 C72.8789079,95.9726535 73.2031234,95.1015684 73.515625,93.9140625 L79.84375,70.1015625 C80.1093763,69.0859324 80.2421875,68.3203151 80.2421875,67.8046875 C80.2421875,67.3203101 80.1328136,66.9531262 79.9140625,66.703125 C79.6953114,66.4531237 79.3632835,66.2773443 78.9179688,66.1757812 C78.472654,66.0742182 77.8359416,66.0078127 77.0078125,65.9765625 L77.2421875,65.015625 C78.5546941,65.1093755 80.5859238,65.15625 83.3359375,65.15625 C85.8984503,65.15625 87.9453048,65.1093755 89.4765625,65.015625 L89.2421875,65.9765625 C88.0703066,66.0234377 87.1992216,66.1484365 86.6289062,66.3515625 C86.0585909,66.5546885 85.6054704,66.9296848 85.2695312,67.4765625 C84.9335921,68.0234402 84.6093766,68.8984315 84.296875,70.1015625 L77.96875,93.9140625 C77.7031237,94.9453177 77.5703125,95.7187474 77.5703125,96.234375 Z" id="K-Copy" fill="#FFFFFF"></path>
                <path d="M61.078125,69.1171875 C59.7792904,69.1171875 58.6992231,68.7959017 57.8378906,68.1533203 C56.9765582,67.510739 56.5458984,66.4580151 56.5458984,64.9951172 C56.5458984,63.3681559 57.1269473,62.0214897 58.2890625,60.9550781 C59.4511777,59.8886665 61.1943243,58.924809 63.5185547,58.0634766 C64.161136,57.8310535 65.2241137,57.4516628 66.7075195,56.925293 C68.1909254,56.3989231 69.6093682,55.8793971 70.9628906,55.3666992 C72.316413,54.8540013 73.4580032,54.3720726 74.3876953,53.9208984 C75.7685616,53.2509732 76.8349572,52.5502966 77.5869141,51.8188477 C78.3388709,51.0873987 78.7148438,50.2294971 78.7148438,49.2451172 C78.7148438,48.575192 78.5336932,47.9633817 78.1713867,47.409668 C77.8090802,46.8559543 77.3100618,46.4218766 76.6743164,46.1074219 C76.038571,45.7929672 75.3378945,45.6357422 74.5722656,45.6357422 C73.8339807,45.6357422 73.3828133,45.7587878 73.21875,46.0048828 C73.5058608,46.1689461 73.7246086,46.3945298 73.875,46.6816406 C74.0253914,46.9687514 74.1005859,47.2763655 74.1005859,47.6044922 C74.1005859,48.0283224 73.9707044,48.4248028 73.7109375,48.7939453 C73.4511706,49.1630878 73.1093771,49.4570302 72.6855469,49.6757812 C72.2617166,49.8945323 71.8105493,50.0039062 71.3320312,50.0039062 C70.7714816,50.0039062 70.3168963,49.8466813 69.9682617,49.5322266 C69.6196272,49.2177719 69.4453125,48.7871121 69.4453125,48.2402344 C69.4453125,47.6660128 69.6401348,47.1499046 70.0297852,46.6918945 C70.4194355,46.2338844 70.9218719,45.8681654 71.5371094,45.5947266 C72.4668015,45.1982402 73.4921819,45 74.6132812,45 C76.2265706,45 77.5048781,45.3964804 78.4482422,46.1894531 C79.3916063,46.9824258 79.8632812,48.1855388 79.8632812,49.7988281 C79.8632812,51.2207102 79.456547,52.4785102 78.6430664,53.5722656 C77.8295858,54.6660211 76.5273527,55.664058 74.7363281,56.5664062 C73.4785093,57.1816437 71.2431801,58.0771426 68.0302734,59.2529297 C70.067393,60.9619226 71.0859375,63.0605344 71.0859375,65.5488281 C71.0859375,67.4082124 70.5288142,69.1308514 69.4145508,70.7167969 C68.3002874,72.3027423 66.6870223,73.5673781 64.574707,74.5107422 C62.4623918,75.4541063 59.9707175,75.9257812 57.0996094,75.9257812 C54.6386596,75.9257812 52.4990325,75.5703161 50.6806641,74.859375 C48.8622956,74.1484339 47.4609424,73.1298894 46.4765625,71.8037109 C45.4921826,70.4775324 45,68.8984467 45,67.0664062 C45,65.425773 45.3896445,63.8877025 46.1689453,62.4521484 C46.9482461,61.0165944 48.0214775,59.7861379 49.3886719,58.7607422 C50.7558662,57.7353464 52.3007726,56.9834008 54.0234375,56.5048828 C53.0800734,55.9990209 52.3554713,55.3256878 51.8496094,54.4848633 C51.3437475,53.6440388 51.0908203,52.7519578 51.0908203,51.8085938 C51.0908203,50.5917908 51.5043904,49.5322311 52.331543,48.6298828 C53.1586955,47.7275346 54.2148373,47.0371118 55.5,46.5585938 C56.7851627,46.0800757 58.0839778,45.8408203 59.3964844,45.8408203 C60.4355521,45.8408203 61.3447227,45.9946274 62.1240234,46.3022461 C62.9033242,46.6098648 63.5048807,47.0371066 63.9287109,47.5839844 C64.3525412,48.1308621 64.5644531,48.7665979 64.5644531,49.4912109 C64.5644531,50.1748081 64.3901385,50.752439 64.0415039,51.2241211 C63.6928694,51.6958031 63.2451199,52.0512683 62.6982422,52.2905273 C62.1513645,52.5297864 61.5839873,52.6494141 60.9960938,52.6494141 L61.078125,51.890625 C61.8574258,51.890625 62.4863257,51.6855489 62.9648438,51.2753906 C63.4433618,50.8652323 63.6826172,50.3046911 63.6826172,49.59375 C63.6826172,48.6640579 63.2998085,47.9189481 62.5341797,47.3583984 C61.7685509,46.7978488 60.7978574,46.5175781 59.6220703,46.5175781 C58.487299,46.5175781 57.4687545,46.787595 56.5664062,47.3276367 C55.664058,47.8676785 54.9599635,48.6127882 54.4541016,49.5629883 C53.9482397,50.5131883 53.6953125,51.5830019 53.6953125,52.7724609 C53.6953125,54.0712956 54.0029266,55.2333933 54.6181641,56.2587891 C55.6162159,56.0947257 56.498043,56.0126953 57.2636719,56.0126953 C58.2753957,56.0126953 58.78125,56.3066377 58.78125,56.8945312 C58.78125,57.195314 58.6513685,57.4174798 58.3916016,57.5610352 C58.1318346,57.7045906 57.8242205,57.7763672 57.46875,57.7763672 C56.7714809,57.7763672 55.8076233,57.4687531 54.5771484,56.8535156 C53.3056577,57.2226581 52.1845752,57.8173787 51.2138672,58.6376953 C50.2431592,59.4580119 49.4877957,60.4287053 48.9477539,61.5498047 C48.4077121,62.670904 48.1376953,63.8603453 48.1376953,65.1181641 C48.1376953,66.7587973 48.5888627,68.1567325 49.4912109,69.3120117 C50.3935592,70.4672909 51.6376874,71.3388642 53.2236328,71.9267578 C54.8095782,72.5146514 56.6279194,72.8085938 58.6787109,72.8085938 C60.8525499,72.8085938 62.8178623,72.4873079 64.574707,71.8447266 C66.3315518,71.2021452 67.7158153,70.2861388 68.7275391,69.0966797 C69.7392629,67.9072206 70.2451172,66.5400468 70.2451172,64.9951172 C70.2451172,63.9697214 70.0092797,62.9648487 69.5375977,61.9804688 C69.0659156,60.9960888 68.3584032,60.1621128 67.4150391,59.4785156 C64.543931,60.5312553 62.766605,61.1943346 62.0830078,61.4677734 C60.825189,61.9599634 59.7758831,62.5239226 58.9350586,63.159668 C58.0942341,63.7954133 57.6738281,64.6191356 57.6738281,65.6308594 C57.6738281,66.4921918 58.0190395,67.1757787 58.7094727,67.6816406 C59.3999058,68.1875025 60.2441356,68.4404297 61.2421875,68.4404297 C62.3496149,68.4404297 63.2519496,68.1669949 63.9492188,67.6201172 C64.6464879,67.0732395 65.1728498,66.5195341 65.5283203,65.9589844 L66.0820312,66.3486328 C64.9609319,68.1943452 63.2929798,69.1171875 61.078125,69.1171875 Z" id="&amp;-copy" fill="#FFFFFF"></path>
            </g>
        </g>
    </g>
</svg>